<svg xmlns="http://www.w3.org/2000/svg" xmlns:xlink="http://www.w3.org/1999/xlink" width="500" zoomAndPan="magnify" viewBox="0 0 375 64.499998" height="86" preserveAspectRatio="xMidYMid meet" version="1.0"><defs><g/></defs><g fill="#ffffff" fill-opacity="1"><g transform="translate(1.473558, 52.091487)"><g><path d="M 11.859375 0 L 4.953125 0 L 4.953125 -38.109375 L 14.796875 -38.109375 L 24.453125 -10.09375 L 25 -10.09375 L 34.578125 -38.109375 L 44.203125 -38.109375 L 44.203125 0 L 37.0625 0 L 37.0625 -25.171875 L 36.40625 -25.28125 L 27.59375 0 L 21.3125 0 L 12.515625 -25.28125 L 11.859375 -25.171875 Z M 11.859375 0 "/></g></g></g><g fill="#ffffff" fill-opacity="1"><g transform="translate(50.652236, 52.091487)"><g><path d="M 7.734375 -32.1875 C 6.429688 -32.1875 5.375 -32.582031 4.5625 -33.375 C 3.75 -34.164062 3.34375 -35.1875 3.34375 -36.4375 C 3.34375 -37.664062 3.75 -38.675781 4.5625 -39.46875 C 5.375 -40.257812 6.429688 -40.65625 7.734375 -40.65625 C 8.609375 -40.65625 9.382812 -40.472656 10.0625 -40.109375 C 10.738281 -39.742188 11.265625 -39.242188 11.640625 -38.609375 C 12.015625 -37.972656 12.203125 -37.25 12.203125 -36.4375 C 12.203125 -35.613281 12.015625 -34.878906 11.640625 -34.234375 C 11.265625 -33.597656 10.738281 -33.097656 10.0625 -32.734375 C 9.382812 -32.367188 8.609375 -32.1875 7.734375 -32.1875 Z M 4.140625 0 L 4.140625 -28.75 L 11.359375 -28.75 L 11.359375 0 Z M 4.140625 0 "/></g></g></g><g fill="#ffffff" fill-opacity="1"><g transform="translate(66.132964, 52.091487)"><g><path d="M 16.765625 0.546875 C 13.984375 0.546875 11.519531 -0.03125 9.375 -1.1875 C 7.238281 -2.34375 5.570312 -4.039062 4.375 -6.28125 C 3.175781 -8.519531 2.578125 -11.210938 2.578125 -14.359375 C 2.578125 -17.523438 3.175781 -20.226562 4.375 -22.46875 C 5.570312 -24.707031 7.226562 -26.40625 9.34375 -27.5625 C 11.46875 -28.71875 13.894531 -29.296875 16.625 -29.296875 C 22.6875 -29.296875 26.570312 -27.097656 28.28125 -22.703125 L 23.328125 -19.15625 L 22.78125 -19.15625 C 22.1875 -20.507812 21.414062 -21.515625 20.46875 -22.171875 C 19.519531 -22.835938 18.238281 -23.171875 16.625 -23.171875 C 14.539062 -23.171875 12.914062 -22.445312 11.75 -21 C 10.59375 -19.5625 10.015625 -17.347656 10.015625 -14.359375 C 10.015625 -11.398438 10.601562 -9.195312 11.78125 -7.75 C 12.957031 -6.300781 14.617188 -5.578125 16.765625 -5.578125 C 18.328125 -5.578125 19.648438 -6 20.734375 -6.84375 C 21.816406 -7.6875 22.59375 -8.898438 23.0625 -10.484375 L 23.609375 -10.53125 L 28.75 -7.71875 C 28.019531 -5.28125 26.664062 -3.289062 24.6875 -1.75 C 22.71875 -0.21875 20.078125 0.546875 16.765625 0.546875 Z M 16.765625 0.546875 "/></g></g></g><g fill="#ffffff" fill-opacity="1"><g transform="translate(95.765268, 52.091487)"><g><path d="M 4.140625 0 L 4.140625 -40.296875 L 11.359375 -40.296875 L 11.359375 -25 L 11.90625 -24.890625 C 12.863281 -26.296875 14.035156 -27.378906 15.421875 -28.140625 C 16.816406 -28.910156 18.492188 -29.296875 20.453125 -29.296875 C 26.796875 -29.296875 29.96875 -25.695312 29.96875 -18.5 L 29.96875 0 L 22.75 0 L 22.75 -17.59375 C 22.75 -19.550781 22.359375 -20.972656 21.578125 -21.859375 C 20.796875 -22.742188 19.582031 -23.1875 17.9375 -23.1875 C 15.914062 -23.1875 14.3125 -22.515625 13.125 -21.171875 C 11.945312 -19.828125 11.359375 -17.726562 11.359375 -14.875 L 11.359375 0 Z M 4.140625 0 "/></g></g></g><g fill="#ffffff" fill-opacity="1"><g transform="translate(129.437155, 52.091487)"><g><path d="M 28.40625 -12.75 L 9.921875 -12.75 C 10.140625 -10.238281 10.851562 -8.414062 12.0625 -7.28125 C 13.28125 -6.144531 14.941406 -5.578125 17.046875 -5.578125 C 18.691406 -5.578125 20.023438 -5.882812 21.046875 -6.5 C 22.078125 -7.113281 22.90625 -8.046875 23.53125 -9.296875 L 24.078125 -9.296875 L 28.875 -6.234375 C 27.9375 -4.210938 26.519531 -2.578125 24.625 -1.328125 C 22.726562 -0.078125 20.203125 0.546875 17.046875 0.546875 C 14.078125 0.546875 11.507812 -0.015625 9.34375 -1.140625 C 7.175781 -2.273438 5.503906 -3.957031 4.328125 -6.1875 C 3.160156 -8.414062 2.578125 -11.140625 2.578125 -14.359375 C 2.578125 -17.628906 3.191406 -20.382812 4.421875 -22.625 C 5.660156 -24.863281 7.332031 -26.535156 9.4375 -27.640625 C 11.539062 -28.742188 13.898438 -29.296875 16.515625 -29.296875 C 20.585938 -29.296875 23.703125 -28.21875 25.859375 -26.0625 C 28.023438 -23.90625 29.109375 -20.742188 29.109375 -16.578125 C 29.109375 -15.066406 29.054688 -13.894531 28.953125 -13.0625 Z M 22.203125 -17.40625 C 22.128906 -19.59375 21.617188 -21.1875 20.671875 -22.1875 C 19.734375 -23.1875 18.347656 -23.6875 16.515625 -23.6875 C 12.867188 -23.6875 10.726562 -21.59375 10.09375 -17.40625 Z M 22.203125 -17.40625 "/></g></g></g><g fill="#ffffff" fill-opacity="1"><g transform="translate(160.685292, 52.091487)"><g><path d="M 11.9375 0.546875 C 9.34375 0.546875 7.363281 -0.148438 6 -1.546875 C 4.644531 -2.953125 3.96875 -5.078125 3.96875 -7.921875 L 3.96875 -40.296875 L 11.1875 -40.296875 L 11.1875 -8.203125 C 11.1875 -6.453125 11.914062 -5.578125 13.375 -5.578125 C 13.789062 -5.578125 14.234375 -5.644531 14.703125 -5.78125 L 15.0625 -5.6875 L 15.71875 -0.125 C 15.3125 0.0820312 14.78125 0.242188 14.125 0.359375 C 13.46875 0.484375 12.738281 0.546875 11.9375 0.546875 Z M 11.9375 0.546875 "/></g></g></g><g fill="#ffffff" fill-opacity="1"><g transform="translate(177.208494, 52.091487)"><g><path d="M 11.9375 0.546875 C 9.34375 0.546875 7.363281 -0.148438 6 -1.546875 C 4.644531 -2.953125 3.96875 -5.078125 3.96875 -7.921875 L 3.96875 -40.296875 L 11.1875 -40.296875 L 11.1875 -8.203125 C 11.1875 -6.453125 11.914062 -5.578125 13.375 -5.578125 C 13.789062 -5.578125 14.234375 -5.644531 14.703125 -5.78125 L 15.0625 -5.6875 L 15.71875 -0.125 C 15.3125 0.0820312 14.78125 0.242188 14.125 0.359375 C 13.46875 0.484375 12.738281 0.546875 11.9375 0.546875 Z M 11.9375 0.546875 "/></g></g></g><g fill="#ffffff" fill-opacity="1"><g transform="translate(193.731695, 52.091487)"><g><path d="M 28.40625 -12.75 L 9.921875 -12.75 C 10.140625 -10.238281 10.851562 -8.414062 12.0625 -7.28125 C 13.28125 -6.144531 14.941406 -5.578125 17.046875 -5.578125 C 18.691406 -5.578125 20.023438 -5.882812 21.046875 -6.5 C 22.078125 -7.113281 22.90625 -8.046875 23.53125 -9.296875 L 24.078125 -9.296875 L 28.875 -6.234375 C 27.9375 -4.210938 26.519531 -2.578125 24.625 -1.328125 C 22.726562 -0.078125 20.203125 0.546875 17.046875 0.546875 C 14.078125 0.546875 11.507812 -0.015625 9.34375 -1.140625 C 7.175781 -2.273438 5.503906 -3.957031 4.328125 -6.1875 C 3.160156 -8.414062 2.578125 -11.140625 2.578125 -14.359375 C 2.578125 -17.628906 3.191406 -20.382812 4.421875 -22.625 C 5.660156 -24.863281 7.332031 -26.535156 9.4375 -27.640625 C 11.539062 -28.742188 13.898438 -29.296875 16.515625 -29.296875 C 20.585938 -29.296875 23.703125 -28.21875 25.859375 -26.0625 C 28.023438 -23.90625 29.109375 -20.742188 29.109375 -16.578125 C 29.109375 -15.066406 29.054688 -13.894531 28.953125 -13.0625 Z M 22.203125 -17.40625 C 22.128906 -19.59375 21.617188 -21.1875 20.671875 -22.1875 C 19.734375 -23.1875 18.347656 -23.6875 16.515625 -23.6875 C 12.867188 -23.6875 10.726562 -21.59375 10.09375 -17.40625 Z M 22.203125 -17.40625 "/></g></g></g><g fill="#ffffff" fill-opacity="1"><g transform="translate(224.979833, 52.091487)"><g/></g></g><g fill="#ffffff" fill-opacity="1"><g transform="translate(237.567698, 52.091487)"><g><path d="M 20.828125 0.546875 C 17.316406 0.546875 14.222656 -0.179688 11.546875 -1.640625 C 8.867188 -3.097656 6.773438 -5.289062 5.265625 -8.21875 C 3.753906 -11.144531 3 -14.753906 3 -19.046875 C 3 -23.335938 3.753906 -26.945312 5.265625 -29.875 C 6.773438 -32.800781 8.867188 -34.992188 11.546875 -36.453125 C 14.222656 -37.921875 17.316406 -38.65625 20.828125 -38.65625 C 24.492188 -38.65625 27.609375 -37.9375 30.171875 -36.5 C 32.734375 -35.0625 34.5625 -32.875 35.65625 -29.9375 L 30.15625 -26.578125 L 29.5 -26.609375 C 28.6875 -28.585938 27.578125 -30.003906 26.171875 -30.859375 C 24.773438 -31.722656 22.992188 -32.15625 20.828125 -32.15625 C 17.660156 -32.15625 15.191406 -31.109375 13.421875 -29.015625 C 11.648438 -26.921875 10.765625 -23.597656 10.765625 -19.046875 C 10.765625 -14.515625 11.648438 -11.203125 13.421875 -9.109375 C 15.191406 -7.015625 17.660156 -5.96875 20.828125 -5.96875 C 25.773438 -5.96875 28.804688 -8.375 29.921875 -13.1875 L 30.578125 -13.1875 L 36.125 -10.296875 C 35.082031 -6.679688 33.300781 -3.96875 30.78125 -2.15625 C 28.257812 -0.351562 24.941406 0.546875 20.828125 0.546875 Z M 20.828125 0.546875 "/></g></g></g><g fill="#ffffff" fill-opacity="1"><g transform="translate(274.940366, 52.091487)"><g><path d="M 4.140625 0 L 4.140625 -40.296875 L 11.359375 -40.296875 L 11.359375 -25 L 11.90625 -24.890625 C 12.863281 -26.296875 14.035156 -27.378906 15.421875 -28.140625 C 16.816406 -28.910156 18.492188 -29.296875 20.453125 -29.296875 C 26.796875 -29.296875 29.96875 -25.695312 29.96875 -18.5 L 29.96875 0 L 22.75 0 L 22.75 -17.59375 C 22.75 -19.550781 22.359375 -20.972656 21.578125 -21.859375 C 20.796875 -22.742188 19.582031 -23.1875 17.9375 -23.1875 C 15.914062 -23.1875 14.3125 -22.515625 13.125 -21.171875 C 11.945312 -19.828125 11.359375 -17.726562 11.359375 -14.875 L 11.359375 0 Z M 4.140625 0 "/></g></g></g><g fill="#ffffff" fill-opacity="1"><g transform="translate(308.612253, 52.091487)"><g><path d="M 28.40625 -12.75 L 9.921875 -12.75 C 10.140625 -10.238281 10.851562 -8.414062 12.0625 -7.28125 C 13.28125 -6.144531 14.941406 -5.578125 17.046875 -5.578125 C 18.691406 -5.578125 20.023438 -5.882812 21.046875 -6.5 C 22.078125 -7.113281 22.90625 -8.046875 23.53125 -9.296875 L 24.078125 -9.296875 L 28.875 -6.234375 C 27.9375 -4.210938 26.519531 -2.578125 24.625 -1.328125 C 22.726562 -0.078125 20.203125 0.546875 17.046875 0.546875 C 14.078125 0.546875 11.507812 -0.015625 9.34375 -1.140625 C 7.175781 -2.273438 5.503906 -3.957031 4.328125 -6.1875 C 3.160156 -8.414062 2.578125 -11.140625 2.578125 -14.359375 C 2.578125 -17.628906 3.191406 -20.382812 4.421875 -22.625 C 5.660156 -24.863281 7.332031 -26.535156 9.4375 -27.640625 C 11.539062 -28.742188 13.898438 -29.296875 16.515625 -29.296875 C 20.585938 -29.296875 23.703125 -28.21875 25.859375 -26.0625 C 28.023438 -23.90625 29.109375 -20.742188 29.109375 -16.578125 C 29.109375 -15.066406 29.054688 -13.894531 28.953125 -13.0625 Z M 22.203125 -17.40625 C 22.128906 -19.59375 21.617188 -21.1875 20.671875 -22.1875 C 19.734375 -23.1875 18.347656 -23.6875 16.515625 -23.6875 C 12.867188 -23.6875 10.726562 -21.59375 10.09375 -17.40625 Z M 22.203125 -17.40625 "/></g></g></g><g fill="#ffffff" fill-opacity="1"><g transform="translate(339.86039, 52.091487)"><g><path d="M 4.140625 0 L 4.140625 -28.75 L 11.078125 -28.75 L 11.078125 -24.53125 L 11.625 -24.390625 C 13.414062 -27.660156 16.316406 -29.296875 20.328125 -29.296875 C 23.648438 -29.296875 26.085938 -28.390625 27.640625 -26.578125 C 29.191406 -24.773438 29.96875 -22.144531 29.96875 -18.6875 L 29.96875 0 L 22.75 0 L 22.75 -17.796875 C 22.75 -19.710938 22.363281 -21.085938 21.59375 -21.921875 C 20.832031 -22.765625 19.613281 -23.1875 17.9375 -23.1875 C 15.863281 -23.1875 14.25 -22.519531 13.09375 -21.1875 C 11.9375 -19.851562 11.359375 -17.75 11.359375 -14.875 L 11.359375 0 Z M 4.140625 0 "/></g></g></g></svg>